# xmcd
#
# Track frame offsets: 
#        150
#        11362
#        22800
#        36862
#        46387
#        68100
#        86700
#        99525
#        111712
#        124912
#        138487
#        151125
#        167287
#        180825
#        199200
#        212812
#        224175
#        237787
#
# Disc length: 3373 seconds
#
# Revision: 4
# Processed by: cddbd v1.5.2PL0 Copyright (c) Steve Scherf et al.
# Submitted via: ExactAudioCopyFreeDBPlugin 1.0
#
DISCID=f80d2b12
DTITLE=Various Artist - O Christmas Tree - A Bluegrass Collection For
DTITLE=The Holidays
DYEAR=2002
DGENRE=Christmas
TTITLE0=Vincent, Rhonda - Christmas Time's a Coming
TTITLE1=Open Road - Christmas Is Near
TTITLE2=Shankman Twins, The - Winter Wonderland
TTITLE3=Johnson Mountain Boys, The - The Friendly Beasts
TTITLE4=Nugent, Alecia - Beautiful Star of Bethlehem
TTITLE5=Stewart, Ron - Silver Bells
TTITLE6=Kendall, Jeannie - Smoky Mountain Christmas
TTITLE7=Open Road - Blue Christmas
TTITLE8=Cox Family, The - Go Tell It on the Mountain
TTITLE9=Grant, Bill and Delia Bell - My Little Silver Bells
TTITLE10=Morris, Lynn - Rudolph the Red Nosed Reindeer
TTITLE11=Trishka, Tony with Dudley Connell - Precious Child
TTITLE12=Shankman Twins, The - Here Comes Santa Claus
TTITLE13=King Band, James - Call Collect on Christmas
TTITLE14=Vincent, Rhonda - O Christmas Tree
TTITLE15=Tischka, Tony - O Come All Ye Faithful
TTITLE16=Lawson, Doyle and Quicksilver - The First Noel - It Came Upon a
TTITLE16=Midnight Clear - Joy to the World 
TTITLE17=Keith, Bill - Auld Lang Syne
EXTD=
EXTT0=
EXTT1=
EXTT2=
EXTT3=
EXTT4=
EXTT5=
EXTT6=
EXTT7=
EXTT8=
EXTT9=
EXTT10=
EXTT11=
EXTT12=
EXTT13=
EXTT14=
EXTT15=
EXTT16=
EXTT17=
PLAYORDER=
